<svg width="100" height="100" viewBox="0 0 100 100" fill="none" xmlns="http://www.w3.org/2000/svg">
<path d="M31.6641 60.7974V39.6411H32.8125V42.9692C32.9474 42.8212 33.0726 42.6646 33.1875 42.5005C33.6568 41.5264 34.394 40.7062 35.3128 40.1361C36.2316 39.566 37.2938 39.2697 38.375 39.2817C40.9922 39.2036 43.1172 40.1724 44.3672 42.5005C45.1625 43.9468 45.6002 45.5624 45.6437 47.2123C45.6872 48.8623 45.3352 50.4987 44.6172 51.9849C43.4531 54.5942 40.5781 55.8911 37.5 55.4146C36.5421 55.333 35.6199 55.0128 34.8175 54.4833C34.0151 53.9539 33.358 53.2319 32.9062 52.3833V60.7974H31.6641ZM32.8125 47.1255C32.9141 48.1567 32.9531 48.8911 33.0703 49.6099C33.5234 52.438 35.1953 54.1177 37.8203 54.4224C39.0529 54.625 40.3175 54.3939 41.3988 53.7685C42.4801 53.1431 43.311 52.1621 43.75 50.9927C44.2544 49.7898 44.4972 48.4934 44.4622 47.1896C44.4272 45.8857 44.1152 44.6042 43.5469 43.4302C43.0783 42.382 42.2814 41.5148 41.2765 40.9596C40.2716 40.4043 39.1133 40.191 37.9766 40.3521C36.9093 40.4294 35.8926 40.8373 35.0679 41.5192C34.2432 42.2011 33.6515 43.123 33.375 44.1567C33.1296 45.1345 32.9418 46.1258 32.8125 47.1255ZM69.0703 50.0005C68.8963 51.49 68.1872 52.8657 67.075 53.8716C65.9627 54.8776 64.5229 55.4453 63.0234 55.4692C58.2109 55.7114 55.9531 52.5161 55.5938 48.8286C55.3435 46.8261 55.6686 44.7937 56.5313 42.9692C57.1314 41.7176 58.1143 40.6894 59.3376 40.0335C60.561 39.3776 61.9613 39.128 63.3359 39.3208C64.6428 39.4316 65.8817 39.9506 66.8772 40.8045C67.8727 41.6584 68.5744 42.8038 68.8828 44.0786C69.1275 45.2396 69.3074 46.4133 69.4219 47.5942H56.7734C56.5391 50.938 58.3359 53.6255 60.8828 54.2739C64.0547 55.0552 66.7656 53.6802 67.75 50.6645C67.9688 49.8911 68.3672 49.7817 69.0703 50.0005ZM56.7734 46.5239H68.0781C68.0078 42.9614 65.7891 40.3833 62.7813 40.3442C59.375 40.2895 56.9219 42.7739 56.7734 46.5239ZM71.3984 50.0786H72.5078C72.5488 50.8949 72.814 51.6841 73.2744 52.3595C73.7347 53.0348 74.3724 53.5702 75.1172 53.9067C76.0525 54.3276 77.0707 54.5322 78.096 54.5051C79.1213 54.4781 80.1273 54.2201 81.0391 53.7505C81.536 53.5265 81.9522 53.1554 82.2316 52.6874C82.511 52.2194 82.6401 51.677 82.6016 51.1333C82.6301 50.6089 82.4869 50.0895 82.1937 49.6539C81.9004 49.2183 81.4731 48.8901 80.9766 48.7192C79.7578 48.2661 78.4609 48.0161 77.2187 47.6177C75.9261 47.2503 74.6622 46.7881 73.4375 46.2349C71.4375 45.2583 71.3125 41.4536 73.5781 40.2505C74.7382 39.5958 76.0438 39.2421 77.3757 39.2217C78.7076 39.2012 80.0235 39.5146 81.2031 40.1333C81.9177 40.5282 82.495 41.1316 82.8579 41.863C83.2208 42.5944 83.3521 43.4191 83.2344 44.2271H82.2813C82.2813 44.1802 82.1953 44.1411 82.1953 44.0942C82.0781 41.0552 79.5313 40.1177 76.7969 40.3833C75.9807 40.4844 75.188 40.7249 74.4531 41.0942C74.0118 41.2961 73.6439 41.63 73.4005 42.0498C73.157 42.4696 73.0498 42.9547 73.0938 43.438C73.0951 43.9215 73.246 44.3928 73.5257 44.7873C73.8055 45.1817 74.2004 45.4799 74.6563 45.6411C75.8594 46.0786 77.1172 46.3599 78.3516 46.7036C79.3438 46.977 80.375 47.1567 81.3359 47.4849C82.0142 47.7072 82.6089 48.1303 83.0414 48.6981C83.4739 49.2659 83.7237 49.9516 83.7578 50.6645C83.8738 51.4457 83.7407 52.2435 83.3774 52.9447C83.0142 53.6459 82.4393 54.2149 81.7344 54.5708C79.125 56.0474 74.8281 55.6567 72.9141 53.7896C72.429 53.3017 72.0453 52.7226 71.7851 52.0856C71.525 51.4487 71.3936 50.7666 71.3984 50.0786ZM97.8203 44.2271H96.7812C96.7812 44.0864 96.7266 43.9614 96.7109 43.8442C96.6941 43.0654 96.4101 42.316 95.9067 41.7215C95.4032 41.127 94.7108 40.7235 93.9453 40.5786C92.501 40.1642 90.9603 40.2384 89.5625 40.7895C89.01 40.948 88.5235 41.2808 88.1758 41.7384C87.828 42.196 87.6375 42.7539 87.6328 43.3286C87.6134 43.8931 87.7893 44.4469 88.1309 44.8967C88.4725 45.3465 88.9589 45.6646 89.5078 45.7974C91.0703 46.2817 92.6719 46.5786 94.2578 47.0161C94.7717 47.1395 95.2778 47.2934 95.7734 47.4771C96.5135 47.7418 97.1564 48.2237 97.6183 48.8596C98.0801 49.4956 98.3394 50.2561 98.3622 51.0418C98.3849 51.8274 98.1702 52.6016 97.746 53.2633C97.3218 53.925 96.7078 54.4433 95.9844 54.7505C94.8819 55.2511 93.687 55.516 92.4762 55.5281C91.2654 55.5402 90.0654 55.2993 88.9531 54.8208C88.0384 54.4263 87.2666 53.7611 86.7414 52.9146C86.2162 52.0682 85.9629 51.0812 86.0156 50.0864H87.0313C87.2191 50.9929 87.6252 51.8399 88.2141 52.5541C88.8031 53.2683 89.5574 53.8282 90.4115 54.1852C91.2656 54.5423 92.1939 54.6857 93.1159 54.6031C94.038 54.5206 94.926 54.2145 95.7031 53.7114C96.1765 53.4655 96.5695 53.0889 96.8353 52.6264C97.1012 52.1639 97.2288 51.6349 97.2031 51.1021C97.2267 50.5774 97.0785 50.0593 96.781 49.6265C96.4835 49.1937 96.053 48.8697 95.5547 48.7036C94.3359 48.2505 93.0391 48.0083 91.7969 47.6099C90.497 47.2476 89.2254 46.7906 87.9922 46.2427C86.0391 45.2817 85.8828 41.5083 88.1094 40.3052C89.2839 39.6231 90.615 39.2567 91.9731 39.2416C93.3312 39.2266 94.67 39.5634 95.8594 40.2192C96.5396 40.6253 97.087 41.2203 97.4352 41.9319C97.7833 42.6434 97.9171 43.4408 97.8203 44.2271ZM29.7656 55.0864C29.3566 55.2413 28.905 55.241 28.4962 55.0855C28.0873 54.9301 27.7496 54.6302 27.5469 54.2427C26.2734 52.3364 24.8672 50.5161 23.5156 48.6567L22.9297 47.8755C21.3203 50.0317 19.7109 52.1021 18.2422 54.2505C18.0508 54.6209 17.7314 54.9091 17.3433 55.0614C16.9552 55.2138 16.525 55.2199 16.1328 55.0786L22.1719 46.9771L16.5547 39.6567C16.959 39.5107 17.4014 39.5087 17.807 39.6511C18.2127 39.7934 18.5568 40.0713 18.7812 40.438C20.0859 42.3442 21.5313 44.1645 22.9688 46.0942C24.4141 44.1802 25.8437 42.3521 27.1797 40.4614C27.3721 40.0971 27.6917 39.8161 28.0778 39.6721C28.4638 39.528 28.8894 39.5309 29.2734 39.6802L27.0937 42.5708C26.1172 43.8599 25.1563 45.1567 24.1406 46.4145C24.0588 46.4878 23.9933 46.5775 23.9485 46.6778C23.9037 46.7781 23.8805 46.8867 23.8805 46.9966C23.8805 47.1064 23.9037 47.215 23.9485 47.3153C23.9933 47.4156 24.0588 47.5053 24.1406 47.5786C26.0078 50.0552 27.8594 52.5396 29.7656 55.0864ZM55.4063 39.5786V40.6724C54.6161 40.6205 53.8238 40.735 53.0806 41.0083C52.3374 41.2816 51.6598 41.7077 51.0915 42.2591C50.5231 42.8105 50.0767 43.4749 49.7811 44.2095C49.4854 44.9441 49.3471 45.7326 49.375 46.5239V55.1177H48.2578V39.6411H49.3516V42.813C50.7031 40.5005 52.7891 39.6411 55.4063 39.5786ZM1.66406 46.8755C1.82812 46.0942 1.92969 45.2427 2.15625 44.4458C3.50781 39.6411 9.01562 37.6411 12.8047 40.6177C15.0234 42.3599 15.5781 44.8286 15.4687 47.6099H2.96875C2.76562 52.5786 6.35156 55.5786 10.9375 54.0474C11.6814 53.7813 12.3473 53.3341 12.8752 52.7462C13.403 52.1584 13.7762 51.4483 13.9609 50.6802C14.2031 49.8989 14.5938 49.7661 15.3359 49.9927C15.2137 50.9438 14.8774 51.8548 14.3524 52.6572C13.8273 53.4596 13.1272 54.1326 12.3047 54.6255C10.9456 55.3687 9.38637 55.6631 7.84988 55.4667C6.31339 55.2702 4.87836 54.593 3.75 53.5317C2.63372 52.2766 1.95875 50.6907 1.82812 49.0161C1.82812 48.7505 1.72656 48.4849 1.67187 48.2349C1.66667 47.7713 1.66406 47.3182 1.66406 46.8755ZM2.98437 46.5395H14.2891C14.2187 42.938 11.9453 40.3833 8.91406 40.3599C5.53906 40.313 3.125 42.813 2.97656 46.5239L2.98437 46.5395Z" fill="#FFFBEB"/>
<path d="M31.6641 60.7974V39.6411H32.8125V42.9692C32.9474 42.8212 33.0726 42.6646 33.1875 42.5005C33.6568 41.5264 34.394 40.7062 35.3128 40.1361C36.2316 39.566 37.2938 39.2697 38.375 39.2817C40.9922 39.2036 43.1172 40.1724 44.3672 42.5005C45.1625 43.9468 45.6002 45.5624 45.6437 47.2123C45.6872 48.8623 45.3352 50.4987 44.6172 51.9849C43.4531 54.5942 40.5781 55.8911 37.5 55.4146C36.5421 55.333 35.6199 55.0128 34.8175 54.4833C34.0151 53.9539 33.358 53.2319 32.9062 52.3833V60.7974H31.6641ZM32.8125 47.1255C32.9141 48.1567 32.9531 48.8911 33.0703 49.6099C33.5234 52.438 35.1953 54.1177 37.8203 54.4224C39.0529 54.625 40.3175 54.3939 41.3988 53.7685C42.4801 53.1431 43.311 52.1621 43.75 50.9927C44.2544 49.7898 44.4972 48.4934 44.4622 47.1896C44.4272 45.8857 44.1152 44.6042 43.5469 43.4302C43.0783 42.382 42.2814 41.5148 41.2765 40.9596C40.2716 40.4043 39.1133 40.191 37.9766 40.3521C36.9093 40.4294 35.8926 40.8373 35.0679 41.5192C34.2432 42.2011 33.6515 43.123 33.375 44.1567C33.1296 45.1345 32.9418 46.1258 32.8125 47.1255ZM69.0703 50.0005C68.8963 51.49 68.1872 52.8657 67.075 53.8716C65.9627 54.8776 64.5229 55.4453 63.0234 55.4692C58.2109 55.7114 55.9531 52.5161 55.5938 48.8286C55.3435 46.8261 55.6686 44.7937 56.5313 42.9692C57.1314 41.7176 58.1143 40.6894 59.3376 40.0335C60.561 39.3776 61.9613 39.128 63.3359 39.3208C64.6428 39.4316 65.8817 39.9506 66.8772 40.8045C67.8727 41.6584 68.5744 42.8038 68.8828 44.0786C69.1275 45.2396 69.3074 46.4133 69.4219 47.5942H56.7734C56.5391 50.938 58.3359 53.6255 60.8828 54.2739C64.0547 55.0552 66.7656 53.6802 67.75 50.6645C67.9688 49.8911 68.3672 49.7817 69.0703 50.0005ZM56.7734 46.5239H68.0781C68.0078 42.9614 65.7891 40.3833 62.7813 40.3442C59.375 40.2895 56.9219 42.7739 56.7734 46.5239ZM71.3984 50.0786H72.5078C72.5488 50.8949 72.814 51.6841 73.2744 52.3595C73.7347 53.0348 74.3724 53.5702 75.1172 53.9067C76.0525 54.3276 77.0707 54.5322 78.096 54.5051C79.1213 54.4781 80.1273 54.2201 81.0391 53.7505C81.536 53.5265 81.9522 53.1554 82.2316 52.6874C82.511 52.2194 82.6401 51.677 82.6016 51.1333C82.6301 50.6089 82.4869 50.0895 82.1937 49.6539C81.9004 49.2183 81.4731 48.8901 80.9766 48.7192C79.7578 48.2661 78.4609 48.0161 77.2187 47.6177C75.9261 47.2503 74.6622 46.7881 73.4375 46.2349C71.4375 45.2583 71.3125 41.4536 73.5781 40.2505C74.7382 39.5958 76.0438 39.2421 77.3757 39.2217C78.7076 39.2012 80.0235 39.5146 81.2031 40.1333C81.9177 40.5282 82.495 41.1316 82.8579 41.863C83.2208 42.5944 83.3521 43.4191 83.2344 44.2271H82.2813C82.2813 44.1802 82.1953 44.1411 82.1953 44.0942C82.0781 41.0552 79.5313 40.1177 76.7969 40.3833C75.9807 40.4844 75.188 40.7249 74.4531 41.0942C74.0118 41.2961 73.6439 41.63 73.4005 42.0498C73.157 42.4696 73.0498 42.9547 73.0938 43.438C73.0951 43.9215 73.246 44.3928 73.5257 44.7873C73.8055 45.1817 74.2004 45.4799 74.6563 45.6411C75.8594 46.0786 77.1172 46.3599 78.3516 46.7036C79.3438 46.977 80.375 47.1567 81.3359 47.4849C82.0142 47.7072 82.6089 48.1303 83.0414 48.6981C83.4739 49.2659 83.7237 49.9516 83.7578 50.6645C83.8738 51.4457 83.7407 52.2435 83.3774 52.9447C83.0142 53.6459 82.4393 54.2149 81.7344 54.5708C79.125 56.0474 74.8281 55.6567 72.9141 53.7896C72.429 53.3017 72.0453 52.7226 71.7851 52.0856C71.525 51.4487 71.3936 50.7666 71.3984 50.0786ZM97.8203 44.2271H96.7812C96.7812 44.0864 96.7266 43.9614 96.7109 43.8442C96.6941 43.0654 96.4101 42.316 95.9067 41.7215C95.4032 41.127 94.7108 40.7235 93.9453 40.5786C92.501 40.1642 90.9603 40.2384 89.5625 40.7895C89.01 40.948 88.5235 41.2808 88.1758 41.7384C87.828 42.196 87.6375 42.7539 87.6328 43.3286C87.6134 43.8931 87.7893 44.4469 88.1309 44.8967C88.4725 45.3465 88.9589 45.6646 89.5078 45.7974C91.0703 46.2817 92.6719 46.5786 94.2578 47.0161C94.7717 47.1395 95.2778 47.2934 95.7734 47.4771C96.5135 47.7418 97.1564 48.2237 97.6183 48.8596C98.0801 49.4956 98.3394 50.2561 98.3622 51.0418C98.3849 51.8274 98.1702 52.6016 97.746 53.2633C97.3218 53.925 96.7078 54.4433 95.9844 54.7505C94.8819 55.2511 93.687 55.516 92.4762 55.5281C91.2654 55.5402 90.0654 55.2993 88.9531 54.8208C88.0384 54.4263 87.2666 53.7611 86.7414 52.9146C86.2162 52.0682 85.9629 51.0812 86.0156 50.0864H87.0313C87.2191 50.9929 87.6252 51.8399 88.2141 52.5541C88.8031 53.2683 89.5574 53.8282 90.4115 54.1852C91.2656 54.5423 92.1939 54.6857 93.1159 54.6031C94.038 54.5206 94.926 54.2145 95.7031 53.7114C96.1765 53.4655 96.5695 53.0889 96.8353 52.6264C97.1012 52.1639 97.2288 51.6349 97.2031 51.1021C97.2267 50.5774 97.0785 50.0593 96.781 49.6265C96.4835 49.1937 96.053 48.8697 95.5547 48.7036C94.3359 48.2505 93.0391 48.0083 91.7969 47.6099C90.497 47.2476 89.2254 46.7906 87.9922 46.2427C86.0391 45.2817 85.8828 41.5083 88.1094 40.3052C89.2839 39.6231 90.615 39.2567 91.9731 39.2416C93.3312 39.2266 94.67 39.5634 95.8594 40.2192C96.5396 40.6253 97.087 41.2203 97.4352 41.9319C97.7833 42.6434 97.9171 43.4408 97.8203 44.2271ZM29.7656 55.0864C29.3566 55.2413 28.905 55.241 28.4962 55.0855C28.0873 54.9301 27.7496 54.6302 27.5469 54.2427C26.2734 52.3364 24.8672 50.5161 23.5156 48.6567L22.9297 47.8755C21.3203 50.0317 19.7109 52.1021 18.2422 54.2505C18.0508 54.6209 17.7314 54.9091 17.3433 55.0614C16.9552 55.2138 16.525 55.2199 16.1328 55.0786L22.1719 46.9771L16.5547 39.6567C16.959 39.5107 17.4014 39.5087 17.807 39.6511C18.2127 39.7934 18.5568 40.0713 18.7812 40.438C20.0859 42.3442 21.5313 44.1645 22.9688 46.0942C24.4141 44.1802 25.8437 42.3521 27.1797 40.4614C27.3721 40.0971 27.6917 39.8161 28.0778 39.6721C28.4638 39.528 28.8894 39.5309 29.2734 39.6802L27.0937 42.5708C26.1172 43.8599 25.1563 45.1567 24.1406 46.4145C24.0588 46.4878 23.9933 46.5775 23.9485 46.6778C23.9037 46.7781 23.8805 46.8867 23.8805 46.9966C23.8805 47.1064 23.9037 47.215 23.9485 47.3153C23.9933 47.4156 24.0588 47.5053 24.1406 47.5786C26.0078 50.0552 27.8594 52.5396 29.7656 55.0864ZM55.4063 39.5786V40.6724C54.6161 40.6205 53.8238 40.735 53.0806 41.0083C52.3374 41.2816 51.6598 41.7077 51.0915 42.2591C50.5231 42.8105 50.0767 43.4749 49.7811 44.2095C49.4854 44.9441 49.3471 45.7326 49.375 46.5239V55.1177H48.2578V39.6411H49.3516V42.813C50.7031 40.5005 52.7891 39.6411 55.4063 39.5786ZM1.66406 46.8755C1.82812 46.0942 1.92969 45.2427 2.15625 44.4458C3.50781 39.6411 9.01562 37.6411 12.8047 40.6177C15.0234 42.3599 15.5781 44.8286 15.4687 47.6099H2.96875C2.76562 52.5786 6.35156 55.5786 10.9375 54.0474C11.6814 53.7813 12.3473 53.3341 12.8752 52.7462C13.403 52.1584 13.7762 51.4483 13.9609 50.6802C14.2031 49.8989 14.5938 49.7661 15.3359 49.9927C15.2137 50.9438 14.8774 51.8548 14.3524 52.6572C13.8273 53.4596 13.1272 54.1326 12.3047 54.6255C10.9456 55.3687 9.38637 55.6631 7.84988 55.4667C6.31339 55.2702 4.87836 54.593 3.75 53.5317C2.63372 52.2766 1.95875 50.6907 1.82812 49.0161C1.82812 48.7505 1.72656 48.4849 1.67187 48.2349C1.66667 47.7713 1.66406 47.3182 1.66406 46.8755ZM2.98437 46.5395H14.2891C14.2187 42.938 11.9453 40.3833 8.91406 40.3599C5.53906 40.313 3.125 42.813 2.97656 46.5239L2.98437 46.5395Z" fill="black" fill-opacity="0.2"/>
</svg>
