<svg width="100" height="100" viewBox="0 0 100 100" fill="none" xmlns="http://www.w3.org/2000/svg">
<path d="M1.09961 1.09961H98.8996V98.9004H1.09961V1.09961Z" fill="#F0DB4F"/>
<path d="M90.8961 75.5753C90.1797 71.1136 87.2703 67.3659 78.6524 63.8714C75.6586 62.4956 72.3211 61.5105 71.3266 59.2417C70.9734 57.9214 70.9266 57.1776 71.15 56.3784C71.7914 53.7847 74.8875 52.9761 77.3414 53.7198C78.9219 54.2495 80.418 55.4675 81.3203 57.4105C85.5406 54.6776 85.532 54.6956 88.4789 52.8175C87.4 51.1448 86.8242 50.373 86.118 49.6573C83.5797 46.8222 80.1211 45.362 74.5898 45.4737L71.7086 45.8464C68.9477 46.544 66.3164 47.9933 64.7734 49.9362C60.1438 55.1894 61.4641 64.3831 67.0977 68.1667C72.6477 72.3323 80.8008 73.28 81.8422 77.1753C82.8555 81.944 78.3375 83.4878 73.8469 82.9394C70.5375 82.2511 68.6969 80.569 66.707 77.5105C63.0445 79.63 63.0445 79.63 59.2789 81.7956C60.1719 83.748 61.1102 84.6315 62.607 86.323C69.6914 93.5089 87.4195 93.1558 90.5992 82.2792C90.7281 81.9058 91.5844 79.4151 90.8961 75.5753ZM54.2672 46.0495H45.1195L45.082 69.6995C45.082 74.7292 45.3422 79.3401 44.5242 80.7534C43.1859 83.5331 39.718 83.1886 38.1375 82.6495C36.5289 81.8589 35.7109 80.7347 34.7633 79.1456C34.5031 78.6894 34.3078 78.3362 34.2422 78.3089L26.8047 82.8636C28.0414 85.4019 29.8633 87.605 32.1969 89.0362C35.6828 91.1284 40.368 91.7698 45.268 90.6448C48.457 89.7159 51.2086 87.7917 52.6492 84.8628C54.732 81.023 54.2852 76.3753 54.2664 71.2347C54.3133 62.848 54.2672 54.4628 54.2672 46.0495Z" fill="#323330"/>
</svg>
