<svg width="100" height="100" viewBox="0 0 100 100" fill="none" xmlns="http://www.w3.org/2000/svg">
<path d="M14.6984 89.159L6.84375 1.05664H93.1563L85.2938 89.1457L49.9477 98.9449L14.6984 89.159Z" fill="#1572B6"/>
<path d="M50.001 91.4551L78.5627 83.5363L85.2822 8.25977H50.001V91.4551Z" fill="#33A9DC"/>
<path d="M50.001 40.1789H64.2994L65.2869 29.1141H50.001V18.3086H77.0963L76.8369 21.2078L74.1807 50.9844H50.001V40.1789Z" fill="white"/>
<path d="M50.0652 68.2418L50.0176 68.2559L37.984 65.0066L37.2145 56.3887H26.3691L27.8824 73.3551L50.016 79.498L50.0652 79.484V68.2418Z" fill="#EBEBEB"/>
<path d="M63.3805 50.5273L62.0789 64.9977L50.0273 68.2508V79.493L72.1789 73.3539L72.3414 71.5281L74.2211 50.5273H63.3805Z" fill="white"/>
<path d="M50.0379 18.3086V29.1141H23.9379L23.7215 26.6859L23.2293 21.2078L22.9707 18.3086H50.0379ZM50.0012 40.1805V50.9859H38.1191L37.9027 48.5578L37.4098 43.0797L37.152 40.1805H50.0012Z" fill="#EBEBEB"/>
</svg>
