<svg width="100" height="100" viewBox="0 0 100 100" fill="none" xmlns="http://www.w3.org/2000/svg">
<mask id="mask0_20_82" style="mask-type:alpha" maskUnits="userSpaceOnUse" x="0" y="0" width="100" height="100">
<path fill-rule="evenodd" clip-rule="evenodd" d="M70.912 99.3177C71.7078 99.6278 72.5588 99.771 73.4123 99.7382C74.2657 99.7054 75.1033 99.4974 75.8729 99.127L96.4612 89.22C97.5215 88.7096 98.4161 87.9102 99.0422 86.9139C99.6683 85.9176 100 84.7647 100 83.588V16.4138C100.001 15.2369 99.6685 14.0839 99.0424 13.0874C98.4163 12.0909 97.5216 11.2914 96.4612 10.7809L75.8729 0.875477C74.7096 0.315716 73.401 0.131417 72.1283 0.348085C70.8555 0.564753 69.6816 1.17168 68.769 2.08485L29.355 38.0427L12.1878 25.0106C11.4132 24.4229 10.4575 24.1248 9.48617 24.1679C8.51486 24.211 7.58926 24.5926 6.86981 25.2466L1.36356 30.2552C0.934459 30.6454 0.591541 31.121 0.356744 31.6514C0.121948 32.1818 0.000442413 32.7553 1.2059e-06 33.3354C-0.000440001 33.9154 0.120193 34.4892 0.354182 35.0199C0.588171 35.5507 0.930365 36.0267 1.35887 36.4177L16.2472 50.0005L1.35966 63.5841C0.93138 63.9751 0.589391 64.4511 0.355547 64.9818C0.121703 65.5124 0.00114864 66.0861 0.00158981 66.666C0.00203097 67.2459 0.123458 67.8193 0.358109 68.3496C0.59276 68.8799 0.935473 69.3555 1.36434 69.7458L6.87059 74.7544C7.58994 75.4085 8.5155 75.7902 9.48681 75.8335C10.4581 75.8767 11.4139 75.5787 12.1886 74.9911L29.3557 61.9599L68.7698 97.9169C69.3798 98.5267 70.1087 99.0036 70.912 99.3177ZM75.0151 27.2997L45.1097 50.0005L75.0159 72.702L75.0151 27.2997Z" fill="white"/>
</mask>
<g mask="url(#mask0_20_82)">
<path d="M96.4619 10.7974L75.8573 0.875517C74.6935 0.315038 73.3843 0.130348 72.1109 0.347032C70.8375 0.563716 69.6631 1.17105 68.7502 2.08489L1.29866 63.5841C0.87006 63.9749 0.527782 64.4509 0.293731 64.9816C0.05968 65.5123 -0.0609869 66.086 -0.0605457 66.666C-0.0601044 67.246 0.0614353 67.8196 0.296293 68.3499C0.531152 68.8802 0.874154 69.3557 1.30334 69.7458L6.81272 74.7544C7.53228 75.4093 8.45846 75.7916 9.43047 75.8348C10.4025 75.8781 11.3589 75.5796 12.1338 74.9911L93.3612 13.37C96.0862 11.3029 100 13.2466 100 16.6669V16.4279C100 15.2514 99.6682 14.0987 99.0423 13.1025C98.4163 12.1064 97.5219 11.3078 96.4619 10.7974Z" fill="#0065A9"/>
<g filter="url(#filter0_d_20_82)">
<path d="M96.4619 89.2044L75.8573 99.1247C74.6937 99.6854 73.3845 99.8704 72.1112 99.654C70.8378 99.4376 69.6633 98.8305 68.7502 97.9169L1.29866 36.4169C0.87006 36.0261 0.527782 35.5502 0.293731 35.0195C0.05968 34.4888 -0.0609869 33.9151 -0.0605457 33.335C-0.0601044 32.755 0.0614353 32.1815 0.296293 31.6512C0.531152 31.1208 0.874154 30.6454 1.30334 30.2552L6.81272 25.2466C7.53228 24.5917 8.45846 24.2095 9.43047 24.1662C10.4025 24.123 11.3589 24.4215 12.1338 25.0099L93.3612 86.6302C96.0862 88.6982 100 86.7544 100 83.3341V83.5732C100 84.7497 99.6682 85.9023 99.0423 86.8985C98.4163 87.8947 97.5219 88.694 96.4619 89.2044Z" fill="#007ACC"/>
</g>
<g filter="url(#filter1_d_20_82)">
<path d="M75.8578 99.127C74.6937 99.6864 73.3845 99.8704 72.1112 99.6537C70.838 99.4369 69.6634 98.83 68.75 97.9169C71.0562 100.223 75 98.5895 75 95.3278V4.67232C75 1.41061 71.0562 -0.222989 68.75 2.08404C69.6634 1.17091 70.838 0.564019 72.1112 0.347236C73.3845 0.130453 74.6937 0.31448 75.8578 0.873886L96.4586 10.7817C97.5194 11.2918 98.4146 12.0912 99.0411 13.0877C99.6677 14.0842 100 15.2374 100 16.4145V83.5879C100 84.7651 99.6677 85.9183 99.0411 86.9148C98.4146 87.9113 97.5194 88.7106 96.4586 89.2208L75.8578 99.127Z" fill="#1F9CF0"/>
</g>
<path opacity="0.25" fill-rule="evenodd" clip-rule="evenodd" d="M70.8519 99.3177C71.6475 99.6277 72.4984 99.7708 73.3517 99.738C74.2051 99.7052 75.0425 99.4972 75.812 99.127L96.4003 89.22C97.4607 88.7095 98.3554 87.9101 98.9815 86.9136C99.6076 85.9171 99.9396 84.764 99.9394 83.5872V16.4138C99.9396 15.2369 99.6076 14.0839 98.9815 13.0874C98.3554 12.0909 97.4607 11.2914 96.4003 10.7809L75.812 0.875477C74.6486 0.315716 73.34 0.131417 72.0673 0.348085C70.7946 0.564753 69.6207 1.17168 68.7081 2.08485L29.294 38.0427L12.1269 25.0114C11.3523 24.4237 10.3966 24.1256 9.42525 24.1687C8.45394 24.2117 7.52833 24.5934 6.80889 25.2474L1.30264 30.2559C0.87364 30.6463 0.530818 31.1219 0.296091 31.6522C0.0613631 32.1826 -0.0601045 32.7562 -0.0605457 33.3362C-0.0609868 33.9162 0.0596081 34.4899 0.293528 35.0206C0.527449 35.5514 0.869546 36.0274 1.29795 36.4184L16.1862 50.0005L1.29873 63.5833C0.870221 63.9742 0.528027 64.4503 0.294037 64.981C0.0600481 65.5118 -0.0605844 66.0855 -0.0601432 66.6656C-0.059702 67.2456 0.0618032 67.8192 0.2966 68.3496C0.531396 68.88 0.874314 69.3555 1.30342 69.7458L6.80967 74.7544C7.52902 75.4085 8.45458 75.7902 9.42589 75.8335C10.3972 75.8767 11.353 75.5787 12.1276 74.9911L29.2956 61.9591L68.7097 97.9169C69.3194 98.5266 70.0488 99.0035 70.8519 99.3177ZM74.955 27.2989L45.0487 50.0005L74.955 72.7013V27.2989Z" fill="url(#paint0_linear_20_82)"/>
</g>
<defs>
<filter id="filter0_d_20_82" x="-1.1023" y="23.1204" width="102.144" height="77.6636" filterUnits="userSpaceOnUse" color-interpolation-filters="sRGB">
<feFlood flood-opacity="0" result="BackgroundImageFix"/>
<feColorMatrix in="SourceAlpha" type="matrix" values="0 0 0 0 0 0 0 0 0 0 0 0 0 0 0 0 0 0 127 0" result="hardAlpha"/>
<feOffset/>
<feGaussianBlur stdDeviation="0.520875"/>
<feColorMatrix type="matrix" values="0 0 0 0 0 0 0 0 0 0 0 0 0 0 0 0 0 0 0.25 0"/>
<feBlend mode="overlay" in2="BackgroundImageFix" result="effect1_dropShadow_20_82"/>
<feBlend mode="normal" in="SourceGraphic" in2="effect1_dropShadow_20_82" result="shape"/>
</filter>
<filter id="filter1_d_20_82" x="67.7083" y="-0.782961" width="33.3335" height="101.567" filterUnits="userSpaceOnUse" color-interpolation-filters="sRGB">
<feFlood flood-opacity="0" result="BackgroundImageFix"/>
<feColorMatrix in="SourceAlpha" type="matrix" values="0 0 0 0 0 0 0 0 0 0 0 0 0 0 0 0 0 0 127 0" result="hardAlpha"/>
<feOffset/>
<feGaussianBlur stdDeviation="0.520875"/>
<feColorMatrix type="matrix" values="0 0 0 0 0 0 0 0 0 0 0 0 0 0 0 0 0 0 0.25 0"/>
<feBlend mode="overlay" in2="BackgroundImageFix" result="effect1_dropShadow_20_82"/>
<feBlend mode="normal" in="SourceGraphic" in2="effect1_dropShadow_20_82" result="shape"/>
</filter>
<linearGradient id="paint0_linear_20_82" x1="49.9394" y1="0.25829" x2="49.9394" y2="99.7427" gradientUnits="userSpaceOnUse">
<stop stop-color="white"/>
<stop offset="1" stop-color="white" stop-opacity="0"/>
</linearGradient>
</defs>
</svg>
