<svg width="100" height="100" viewBox="0 0 100 100" fill="none" xmlns="http://www.w3.org/2000/svg">
<path fill-rule="evenodd" clip-rule="evenodd" d="M57.6559 39.6875H66.484V48.6719H70.9371C72.9684 48.6719 75.0777 48.2813 77.0309 47.6563C77.9684 47.3438 79.0621 46.875 79.9996 46.3281C78.7496 44.6875 78.1246 42.6563 77.9684 40.625C77.734 37.8906 78.2809 34.2969 80.1559 32.1875L81.0934 31.0938L82.1871 31.9531C84.9996 34.2188 87.2652 37.2656 87.734 40.8594C91.0934 39.8438 94.9996 40.0781 97.9684 41.7969L99.1402 42.5L98.5152 43.75C96.0152 48.5938 90.7809 50.1563 85.7027 49.8438C78.0465 68.8281 61.484 77.8125 41.3277 77.8125C30.9371 77.8125 21.4059 73.9063 15.9371 64.6875L15.859 64.5312L15.0777 62.8906C13.2027 58.8281 12.6559 54.375 13.0465 49.9219L13.2027 48.5938H20.7027V39.6875H29.5309V30.9375H47.109V22.1094H57.6559V39.6875Z" fill="#3A4D54"/>
<path d="M86.2504 43.0469C86.8754 38.4375 83.4379 34.8438 81.2504 33.125C78.8285 35.9375 78.4379 43.4375 82.266 46.5625C80.0785 48.4375 75.6254 50.2344 70.9379 50.2344H14.5316C14.0629 55.0781 14.9223 59.5312 16.8754 63.3594L17.5004 64.5312C17.891 65.2344 18.3598 65.8594 18.8285 66.5625C21.1723 66.7187 23.2816 66.7969 25.2348 66.7188C29.0629 66.6406 32.1879 66.1719 34.6098 65.3906C35.0004 65.2344 35.3129 65.4687 35.4692 65.7812C35.6254 66.1719 35.391 66.4844 35.0785 66.6406C34.766 66.7188 34.4535 66.875 34.0629 66.9531C32.1879 67.5 30.1566 67.8125 27.5785 67.9687H27.1098C26.0942 68.0469 25.0004 68.0469 23.8285 68.0469C22.5785 68.0469 21.4066 68.0469 20.0004 67.9687C24.6879 73.2812 32.0316 76.4063 41.2504 76.4063C60.7816 76.4063 77.3441 67.7344 84.6098 48.3594C89.8441 48.9062 94.8441 47.5781 97.1098 43.125C93.5941 41.0156 88.9066 41.7187 86.2504 43.0469Z" fill="#00AADA"/>
<path d="M86.2503 43.0469C86.8753 38.4375 83.4378 34.8438 81.2503 33.125C78.8284 35.9375 78.4378 43.4375 82.2659 46.5625C80.0784 48.4375 75.6253 50.2344 70.9378 50.2344H17.8128C17.5784 57.6563 20.3128 63.2813 25.2346 66.6406C29.0628 66.5625 32.1878 66.0937 34.6096 65.3125C35.0003 65.1562 35.3128 65.3906 35.469 65.7031C35.6253 66.0937 35.3909 66.4062 35.0784 66.5625C34.7659 66.6406 34.4534 66.7969 34.0628 66.875C32.1878 67.4219 30.0003 67.8125 27.4221 67.9687L27.344 67.8906C33.9846 71.3281 43.594 71.25 54.6878 67.0313C67.0315 62.2656 78.594 53.2031 86.6409 42.8906C86.4846 42.9688 86.3284 42.9687 86.2503 43.0469Z" fill="#28B8EB"/>
<path d="M14.6094 56.0938C14.9219 58.6719 15.7031 61.0937 16.875 63.3594L17.5 64.5312C17.8906 65.2344 18.3594 65.8594 18.8281 66.5625C21.1719 66.7187 23.2812 66.7969 25.2344 66.7187C29.0625 66.6406 32.1875 66.1719 34.6094 65.3906C35 65.2344 35.3125 65.4687 35.4688 65.7812C35.625 66.1719 35.3906 66.4844 35.0781 66.6406C34.7656 66.7188 34.4531 66.875 34.0625 66.9531C32.1875 67.5 30 67.8906 27.4219 68.0469H27.1094C26.0938 68.125 25 68.125 23.9063 68.125C22.6563 68.125 21.4063 68.125 20.0781 68.0469C24.7656 73.3594 32.1875 76.4844 41.4063 76.4844C58.125 76.4844 72.6563 70.1562 81.0938 56.1719H14.6094V56.0938Z" fill="#028BB8"/>
<path d="M18.3594 56.0938C19.375 60.625 21.7187 64.2188 25.2344 66.6406C29.0625 66.5625 32.1875 66.0937 34.6094 65.3125C35 65.1562 35.3125 65.3906 35.4688 65.7031C35.625 66.0937 35.3906 66.4062 35.0781 66.5625C34.7656 66.6406 34.4531 66.7969 34.0625 66.875C32.1875 67.4219 30 67.8125 27.3438 67.9687C33.9844 71.4062 43.5938 71.3281 54.6094 67.1094C61.25 64.5312 67.7344 60.7031 73.5156 56.0938H18.3594Z" fill="#019BC6"/>
<path fill-rule="evenodd" clip-rule="evenodd" d="M22.1875 41.1719H29.8438V48.8281H22.1875V41.1719ZM22.8125 41.7969H23.4375V48.125H22.8125V41.7969ZM23.9063 41.7969H24.5312V48.125H23.9063V41.7969ZM25.0781 41.7969H25.7031V48.125H25.0781V41.7969ZM26.25 41.7969H26.875V48.125H26.25V41.7969ZM27.4219 41.7969H28.0469V48.125H27.4219V41.7969ZM28.5937 41.7969H29.2188V48.125H28.5937V41.7969ZM30.9375 32.4219H38.5938V40.0781H30.9375V32.4219ZM31.6406 33.0469H32.2656V39.375H31.6406V33.0469ZM32.7344 33.0469H33.3594V39.375H32.7344V33.0469ZM33.9063 33.0469H34.5313V39.375H33.9063V33.0469ZM35.0781 33.0469H35.7031V39.375H35.0781V33.0469ZM36.1719 33.0469H36.7969V39.375H36.1719V33.0469ZM37.3437 33.0469H37.9687V39.375H37.3437V33.0469Z" fill="#00ACD3"/>
<path fill-rule="evenodd" clip-rule="evenodd" d="M30.9375 41.1719H38.5938V48.8281H30.9375V41.1719ZM31.6406 41.7969H32.2656V48.125H31.6406V41.7969ZM32.7344 41.7969H33.3594V48.125H32.7344V41.7969ZM33.9063 41.7969H34.5313V48.125H33.9063V41.7969ZM35.0781 41.7969H35.7031V48.125H35.0781V41.7969ZM36.1719 41.7969H36.7969V48.125H36.1719V41.7969ZM37.3438 41.7969H37.9688V48.125H37.3438V41.7969Z" fill="#23C2EE"/>
<path fill-rule="evenodd" clip-rule="evenodd" d="M39.7656 41.1719H47.4219V48.8281H39.7656V41.1719ZM40.3906 41.7969H41.0156V48.125H40.3906V41.7969ZM41.5625 41.7969H42.1875V48.125H41.5625V41.7969ZM42.7344 41.7969H43.3594V48.125H42.7344V41.7969ZM43.8281 41.7969H44.4531V48.125H43.8281V41.7969ZM45 41.7969H45.625V48.125H45V41.7969ZM46.1719 41.7969H46.7969V48.125H46.1719V41.7969Z" fill="#00ACD3"/>
<path fill-rule="evenodd" clip-rule="evenodd" d="M39.7656 32.4219H47.4219V40.0781H39.7656V32.4219ZM40.3906 33.0469H41.0156V39.375H40.3906V33.0469ZM41.5625 33.0469H42.1875V39.375H41.5625V33.0469ZM42.7344 33.0469H43.3594V39.375H42.7344V33.0469ZM43.8281 33.0469H44.4531V39.375H43.8281V33.0469ZM45 33.0469H45.625V39.375H45V33.0469ZM46.1719 33.0469H46.7969V39.375H46.1719V33.0469ZM48.5937 41.1719H56.25V48.8281H48.5937V41.1719ZM49.2187 41.7969H49.8437V48.125H49.2187V41.7969ZM50.3906 41.7969H51.0156V48.125H50.3906V41.7969ZM51.4844 41.7969H52.1094V48.125H51.4844V41.7969ZM52.6562 41.7969H53.2812V48.125H52.6562V41.7969ZM53.8281 41.7969H54.4531V48.125H53.8281V41.7969ZM55 41.7969H55.625V48.125H55V41.7969Z" fill="#23C2EE"/>
<path fill-rule="evenodd" clip-rule="evenodd" d="M48.5938 32.4219H56.25V40.0781H48.5938V32.4219ZM49.2187 33.0469H49.8437V39.375H49.2187V33.0469ZM50.3906 33.0469H51.0156V39.375H50.3906V33.0469ZM51.4844 33.0469H52.1094V39.375H51.4844V33.0469ZM52.6563 33.0469H53.2812V39.375H52.6563V33.0469ZM53.8281 33.0469H54.4531V39.375H53.8281V33.0469ZM55 33.0469H55.625V39.375H55V33.0469Z" fill="#00ACD3"/>
<path fill-rule="evenodd" clip-rule="evenodd" d="M48.5938 23.5938H56.25V31.25H48.5938V23.5938ZM49.2187 24.2187H49.8437V30.5469H49.2187V24.2187ZM50.3906 24.2187H51.0156V30.5469H50.3906V24.2187ZM51.4844 24.2187H52.1094V30.5469H51.4844V24.2187ZM52.6563 24.2187H53.2812V30.5469H52.6563V24.2187ZM53.8281 24.2187H54.4531V30.5469H53.8281V24.2187ZM55 24.2187H55.625V30.5469H55V24.2187Z" fill="#23C2EE"/>
<path fill-rule="evenodd" clip-rule="evenodd" d="M57.4219 41.1719H65.0781V48.8281H57.4219V41.1719ZM58.0469 41.7969H58.6719V48.125H58.0469V41.7969ZM59.1406 41.7969H59.7656V48.125H59.1406V41.7969ZM60.3125 41.7969H60.9375V48.125H60.3125V41.7969ZM61.4844 41.7969H62.1094V48.125H61.4844V41.7969ZM62.6562 41.7969H63.2812V48.125H62.6562V41.7969ZM63.8281 41.7969H64.4531V48.125H63.8281V41.7969Z" fill="#00ACD3"/>
<path fill-rule="evenodd" clip-rule="evenodd" d="M38.125 61.1719C39.2969 61.1719 40.2344 62.1094 40.2344 63.2812C40.2344 64.4531 39.2969 65.3906 38.125 65.3906C36.9531 65.3906 36.0156 64.4531 36.0156 63.2812C36.0156 62.1094 36.9531 61.1719 38.125 61.1719Z" fill="#D4EEF1"/>
<path fill-rule="evenodd" clip-rule="evenodd" d="M38.125 61.7969C38.2813 61.7969 38.5156 61.7969 38.6719 61.875C38.5156 61.9531 38.3594 62.1875 38.3594 62.4219C38.3594 62.7344 38.6719 63.0469 38.9844 63.0469C39.2188 63.0469 39.4531 62.8906 39.5312 62.7344C39.6094 62.8906 39.6094 63.125 39.6094 63.2813C39.6094 64.1406 38.9063 64.7656 38.125 64.7656C37.2656 64.7656 36.6406 64.0625 36.6406 63.2813C36.6406 62.5 37.2656 61.7969 38.125 61.7969ZM0.859375 56.875H98.8281C96.7188 56.3281 92.1094 55.625 92.8125 52.8125C88.9063 57.2656 79.6094 55.9375 77.1875 53.75C74.5313 57.5781 59.2188 56.0938 58.2031 53.125C54.9219 57.0313 44.6875 57.0313 41.4063 53.125C40.3125 56.0938 25 57.5781 22.4219 53.75C20.0781 55.9375 10.7031 57.2656 6.79687 52.8125C7.65625 55.5469 2.96875 56.3281 0.859375 56.875Z" fill="#3A4D54"/>
<path d="M43.75 76.4063C38.5156 73.9063 35.7031 70.5469 34.0625 66.875C32.1094 67.4219 29.7656 67.8125 27.1094 67.9688C26.0938 68.0469 25 68.0469 23.9063 68.0469C22.5781 68.0469 21.25 68.0469 19.8438 67.9688C24.5312 72.6563 30.4688 76.3281 41.3281 76.4063H43.75Z" fill="#BFDBE0"/>
<path d="M36.0156 70.2344C35.3125 69.2188 34.6094 68.0469 34.0625 66.875C32.1094 67.4219 29.7656 67.8125 27.1094 67.9688C28.9062 68.9063 31.5625 69.8438 36.0156 70.2344Z" fill="#D4EEF1"/>
</svg>
