<svg width="100" height="100" viewBox="0 0 100 100" fill="none" xmlns="http://www.w3.org/2000/svg">
<path d="M54.6512 30.7106C53.3418 30.7653 51.1293 31.1168 51.1293 31.2653C51.1293 31.327 52.6887 32.1082 52.8082 32.1082C52.9176 32.1082 54.7277 33.0114 55.1301 33.2614C55.6551 33.5973 56.0308 33.902 55.9207 33.902C55.8504 33.902 53.9918 33.1825 53.2871 32.8801C52.7136 32.6387 50.3301 31.9278 49.1699 31.6535C48.5418 31.5067 48.2762 31.452 47.2082 31.2567C45.6332 30.9692 43.7808 30.952 42.9754 31.2168C41.8215 31.5918 41.5621 32.0528 41.5621 33.7528C41.5621 34.6903 41.6082 35.0864 41.8121 35.9285C41.9012 36.295 42.1512 37.1004 42.2676 37.3723C42.3012 37.4582 42.4105 37.7239 42.5019 37.9582C42.5965 38.1903 42.8808 38.791 43.1308 39.2825C44.5347 42.0692 46.6371 44.3918 49.6004 46.4356C50.5347 47.0762 53.0738 48.291 54.0926 48.5817C54.3519 48.652 54.4379 48.7981 54.2269 48.7981C53.9926 48.7981 51.8441 48.2059 51.4043 48.02C51.2369 47.9458 51.067 47.8775 50.8949 47.8153C49.366 47.1989 47.4129 45.9293 45.798 44.4856C44.0287 42.911 42.6142 40.9785 41.648 38.816C41.0285 37.4176 40.6074 35.7887 40.5035 34.3692C40.4426 33.5575 40.3785 33.3621 40.1676 33.3715C40.0972 33.3715 39.4293 33.3473 38.6933 33.3075C36.6918 33.2215 33.9574 33.4418 31.2504 33.909C26.0746 34.7903 20.4902 36.8262 14.7433 39.9293C13.7876 40.4468 12.8434 40.9852 11.9113 41.5442C11.8019 41.6082 11.4566 41.8184 11.1426 42.0137C10.8308 42.209 10.4621 42.4262 10.3277 42.5114C10.0308 42.6856 6.7449 44.916 6.35115 45.2121C6.20428 45.3192 5.79568 45.6239 5.45115 45.8746C3.89099 47.0278 0.494901 49.7989 0.299588 50.0801C0.205057 50.2207 0.354276 50.291 0.555838 50.2207C0.659745 50.1801 0.92537 50.1254 1.13865 50.0957C1.35818 50.0614 1.92303 49.9153 2.39256 49.7598C2.86912 49.6098 3.38162 49.4543 3.52849 49.4145C4.69099 49.1426 5.16131 49.0481 5.84099 48.9473C6.14959 48.9082 6.60428 48.8379 6.86053 48.7981C10.0465 48.3309 11.5668 48.2153 12.9855 48.3215C16.0676 48.5715 19.016 49.0973 20.7035 49.695C21.9668 50.1496 24.5363 51.5387 25.666 52.3715C26.3191 52.8637 28.4183 54.9536 28.8824 55.5848C29.2418 56.0856 29.6418 56.5223 29.7363 56.5223C29.7676 56.5223 29.8066 54.9285 29.816 52.9879L29.8371 49.4629L33.9637 49.4395C37.2105 49.4239 38.1105 49.4481 38.166 49.5176C38.2449 49.6192 38.434 49.9551 39.0535 51.0989C39.6426 52.2004 39.9324 52.7317 40.1129 53.0489C40.2066 53.2231 40.4238 53.6262 40.6074 53.9465C40.7777 54.2668 41.098 54.859 41.3183 55.2645C41.5379 55.6707 41.7176 56.0153 41.7176 56.0301C41.7176 56.1004 42.041 56.5223 42.0965 56.5223C42.1269 56.5223 42.2058 56.4028 42.2605 56.2723C42.3222 56.1317 42.4871 55.82 42.6215 55.5848C42.7621 55.3504 43.0121 54.8926 43.1855 54.5723C43.3597 54.252 43.5949 53.8067 43.7199 53.5957C44.0644 52.9785 44.4246 52.3106 44.7238 51.7645C45.0411 51.1611 45.3677 50.5625 45.7035 49.9692C45.8043 49.7739 45.9301 49.5692 45.9691 49.5176C46.0332 49.4473 46.9574 49.4231 50.2996 49.4379L54.5418 49.4621L54.5652 56.3504C54.5808 61.7762 54.6027 63.2293 54.6824 63.2293C54.7277 63.22 55.0418 63.0395 55.3652 62.8137C55.8199 62.4965 56.0152 62.3012 56.2262 61.941C56.7051 61.1231 58.0629 59.8356 58.9722 59.3348C60.0776 58.7242 61.2662 58.2784 62.5004 58.0114C63.7543 57.7457 64.1238 57.7067 66.9715 57.6051C72.1683 57.4254 72.9371 57.3942 72.9769 57.3551C73.0012 57.334 72.9316 57.1293 72.8277 56.8942C72.7183 56.6684 72.5308 56.2473 72.3972 55.9668C71.9027 54.8989 71.9027 54.541 72.4215 54.0168C72.773 53.6496 73.6816 53.3293 75.2441 53.0184C75.5011 52.9637 75.8246 52.8934 75.9551 52.8481C76.0902 52.8082 76.2543 52.7778 76.3246 52.7778C76.523 52.7778 78.0824 52.3957 78.4121 52.2707C78.6386 52.177 79.8621 51.9114 81.3207 51.6301C81.9551 51.5051 83.6035 51.1785 84.9676 50.9035C85.8308 50.7332 86.7316 50.5528 86.966 50.5067C87.2012 50.4614 87.5402 50.391 87.7113 50.3606C87.8847 50.3215 88.1105 50.2723 88.2207 50.2567C88.3301 50.2356 88.8801 50.1254 89.4379 50.0098C89.8562 49.9181 90.2766 49.8366 90.6988 49.7653C91.0926 49.7286 94.0496 49.0176 94.7301 48.7981C95.8136 48.4465 96.134 48.3067 96.8176 47.8489C97.5527 47.3489 97.7574 47.077 98.4863 45.6239C99.2957 44.0098 99.4113 43.7379 99.6402 43.0575C99.9918 41.9746 99.9699 41.5621 99.5215 41.1075C99.2066 40.7965 98.5324 40.4762 98.041 40.4059C97.6722 40.3598 97.623 40.3746 97.4433 40.57C97.3332 40.6871 97.2386 40.827 97.2386 40.8754C97.2386 40.9457 97.1137 41.2879 96.7621 42.1301C96.7285 42.216 96.659 42.4262 96.6035 42.5965C96.5582 42.7707 96.4629 43.0121 96.4082 43.1434C96.3074 43.3621 96.2988 43.3231 96.3379 42.716C96.3777 42.1145 96.4785 41.6082 96.7074 40.8418C96.7472 40.6957 96.8019 40.4457 96.8238 40.2895L96.8629 40.0082L96.048 39.6825C95.2004 39.3309 94.4699 39.0262 94.0496 38.8371C93.9058 38.7856 93.5551 38.645 93.2652 38.5348C92.966 38.4254 92.6058 38.2848 92.4566 38.2145C92.1846 38.0942 91.9098 37.9803 91.6324 37.8731C91.1074 37.6684 89.273 37.0457 87.7105 36.5543C86.6674 36.2345 85.6229 35.9193 84.5769 35.609C84.2088 35.5154 83.8426 35.4143 83.4785 35.3059C83.3535 35.2723 83.0449 35.1871 82.8097 35.1262C81.4301 34.745 81.0707 34.6496 80.5754 34.509C80.3024 34.4304 80.0279 34.3574 79.7519 34.2903C79.6027 34.2535 79.1972 34.159 78.8519 34.0731C78.2472 33.9239 75.7144 33.341 74.341 33.0262L73.3613 32.8004C73.1879 32.7614 72.8769 32.6996 72.6566 32.6598C72.4433 32.6207 71.9972 32.5348 71.6738 32.4645C71.3535 32.4043 70.6637 32.2692 70.1449 32.184C69.6293 32.0926 69.0097 31.9832 68.7746 31.9434C66.6082 31.5528 66.4621 31.5309 62.5793 31.1012C60.1871 30.8293 56.9699 30.6004 56.1863 30.6403C56.0613 30.6403 55.366 30.6707 54.6512 30.7106ZM45.5847 34.5551C47.6566 35.227 49.6707 36.1395 51.0504 37.0301C52.1488 37.7387 53.5129 38.8707 53.8824 39.377L54.0379 39.5879L53.7418 39.4715C53.5777 39.4012 53.2324 39.2528 52.973 39.127C51.5933 38.4864 51.4441 38.434 51.4441 38.5746C51.4441 38.6114 51.7644 39.127 52.1488 39.7035C52.5426 40.2895 52.8535 40.8051 52.8535 40.852C52.8535 40.891 52.7074 40.827 52.5238 40.702C51.8191 40.2192 50.1644 39.5239 50.0707 39.6645C50.0465 39.7035 50.5551 40.3504 51.209 41.1075C51.8496 41.8645 52.384 42.5114 52.384 42.5606C52.384 42.6762 52.259 42.6606 51.6636 42.4411C51.0504 42.2246 50.8949 42.2004 50.8949 42.3496C50.8949 42.4504 52.2191 44.2356 52.7441 44.852C52.8933 45.0231 53.0121 45.1879 53.0121 45.227C53.0121 45.4137 51.1754 44.2207 49.8754 43.1918C48.016 41.709 46.2191 39.7192 45.2738 38.0746C44.4949 36.7309 44.2293 36.0082 44.2293 35.2114C44.2293 34.745 44.2512 34.6504 44.4246 34.4848C44.5262 34.3785 44.6535 34.2895 44.6996 34.2895C44.7457 34.2895 45.1387 34.409 45.5847 34.5551ZM70.3433 37.3325C71.0941 37.4668 72.1222 37.6442 72.6168 37.7325C73.1113 37.8184 73.7152 37.9184 73.9504 37.9582C74.1855 38.0043 74.5207 38.0653 74.6949 38.1043C74.8668 38.1442 75.2051 38.2145 75.4402 38.2692C76.2152 38.441 76.4043 38.4801 77.6738 38.7762C79.0379 39.0965 79.3371 39.1575 79.7519 39.2426C80.1058 39.3129 80.4566 39.4473 80.4566 39.5082C80.4566 39.5332 80.2004 39.6825 79.8863 39.8442C79.2426 40.1645 79.1082 40.1887 76.459 40.2895C74.6558 40.366 73.691 40.3442 72.8121 40.2035C71.0386 39.9301 70.1238 39.4325 69.4097 38.3551C69.1597 37.9887 68.9949 37.8785 68.4207 37.7325C68.2097 37.6684 67.8871 37.5825 67.716 37.5278C67.5418 37.4731 67.2457 37.3871 67.0566 37.3325C66.4918 37.1864 66.8129 37.1004 67.9511 37.1004C68.7347 37.1004 69.2847 37.1528 70.3433 37.3325ZM79.7761 48.2309C79.7119 48.2462 79.645 48.2462 79.5808 48.2309C79.5261 48.2059 79.5652 48.191 79.6754 48.191C79.7824 48.191 79.8222 48.2067 79.7769 48.2301L79.7761 48.2309ZM79.4379 48.3223C79.4379 48.3614 79.3465 48.4161 79.2269 48.4411C78.9832 48.502 78.0277 48.777 77.7136 48.877C77.6035 48.9168 77.2496 49.027 76.9293 49.1192C76.1207 49.3536 74.1613 49.991 73.6363 50.1957C72.6472 50.5707 70.3254 51.8012 69.9988 52.1309C69.5105 52.6067 69.3605 53.1192 69.434 54.102C69.4551 54.5168 69.5105 55.0395 69.559 55.2645C69.6535 55.7567 69.598 55.8903 69.4097 55.6465C69.2207 55.4051 68.8207 54.5325 68.7043 54.102C68.6402 53.9098 68.5707 53.6504 68.5308 53.5254C68.3902 53.0825 68.4449 52.5575 68.6652 52.2403C68.9613 51.7856 70.0293 51.0621 71.2832 50.4614C71.8785 50.1715 73.6113 49.5785 75.2051 49.1121C75.5254 49.0184 75.8793 48.9082 75.9894 48.8778C77.1183 48.4957 79.4379 48.1293 79.4379 48.3223ZM54.6363 48.8465C54.6113 48.8684 54.5418 48.8778 54.4863 48.8528C54.4222 48.8317 54.4472 48.8075 54.5324 48.8075C54.6207 48.7981 54.6668 48.8231 54.6363 48.8465Z" fill="#C92A2A"/>
<path d="M38.1895 63.9309V69.3902H42.0957C45.0285 69.3902 46.023 69.3668 46.0934 69.2965C46.2121 69.1793 46.2371 58.4715 46.1176 58.4715C46.0785 58.4715 46.0238 58.5324 45.9988 58.6027C45.9676 58.673 45.1137 60.0066 44.0941 61.566C42.4801 64.0316 42.0316 64.6324 42.0316 64.3277C42.0316 64.273 39.3582 60.1012 38.6746 59.0934C38.5838 58.9625 38.5031 58.8248 38.4332 58.6816C38.3691 58.5629 38.2926 58.4707 38.2535 58.4707C38.2199 58.4707 38.1895 60.9277 38.1895 63.9309Z" fill="#850000"/>
</svg>
