<svg width="100" height="100" viewBox="0 0 100 100" fill="none" xmlns="http://www.w3.org/2000/svg">
<g clip-path="url(#clip0_20_26)">
<path d="M89.3066 43.167C89.2663 43.1669 89.2269 43.1789 89.1934 43.2014L87.3605 44.2717C87.3261 44.293 87.2977 44.323 87.2783 44.3586C87.2588 44.3942 87.2489 44.4342 87.2496 44.4748V46.6154C87.2496 46.7061 87.2926 46.7748 87.3605 46.8201L89.1934 47.8889C89.2269 47.9114 89.2663 47.9234 89.3066 47.9234C89.347 47.9234 89.3864 47.9114 89.4199 47.8889L91.2496 46.8201C91.2844 46.7983 91.313 46.768 91.3328 46.732C91.3526 46.6961 91.363 46.6557 91.3629 46.6146V44.4764C91.3633 44.4356 91.3531 44.3954 91.3332 44.3598C91.3134 44.3241 91.2845 44.2943 91.2496 44.2732L89.4191 43.2021C89.3859 43.1798 89.3467 43.1671 89.3066 43.167ZM49.3902 55.967C49.0566 55.967 48.7246 56.0482 48.4418 56.2076L39.4191 61.4631C39.13 61.6329 38.8904 61.8754 38.724 62.1665C38.5576 62.4576 38.4703 62.7872 38.4707 63.1225V73.6092C38.4707 74.292 38.8316 74.9295 39.4191 75.2717L41.7941 76.6357C42.9473 77.2045 43.3543 77.2029 43.8738 77.2029C45.5691 77.2029 46.5418 76.1568 46.5418 74.3592V64.0115C46.5408 63.9395 46.5119 63.8707 46.4612 63.8195C46.4105 63.7684 46.3419 63.7389 46.2699 63.7373H45.1184C45.0461 63.7385 44.9771 63.7678 44.9261 63.819C44.875 63.8702 44.8459 63.9392 44.8449 64.0115V74.3615C44.8449 75.1576 44.0098 75.9553 42.6762 75.2732L40.2113 73.8396C40.1207 73.7943 40.0746 73.6787 40.0746 73.5881V63.099C40.0746 63.0084 40.1207 62.8959 40.2113 62.8498L49.2309 57.6178C49.2988 57.5725 49.4129 57.5725 49.5035 57.6178L58.5254 62.8498C58.6152 62.8959 58.6598 62.9857 58.6598 63.0998V73.5873C58.6598 73.7006 58.6152 73.7936 58.5254 73.8389L49.5035 79.0943C49.4355 79.1396 49.3215 79.1396 49.2309 79.0943L46.9254 77.7045C46.8574 77.6592 46.7668 77.6365 46.6988 77.6818C46.066 78.0459 45.9551 78.0936 45.3441 78.2982C45.2082 78.3436 44.9824 78.4334 45.434 78.6834L48.4418 80.4818C48.7355 80.6404 49.0512 80.7311 49.3902 80.7311C49.7293 80.7311 50.0676 80.6412 50.3387 80.5279L59.3613 75.2725C59.6509 75.1024 59.8908 74.8594 60.0572 74.5677C60.2236 74.276 60.3107 73.9458 60.3098 73.61V63.1225C60.3098 62.4396 59.9488 61.8045 59.3613 61.4631L50.3387 56.2076C50.0481 56.0482 49.7217 55.9654 49.3902 55.967ZM63.4762 60.7561C63.0131 60.7579 62.5698 60.9435 62.2436 61.2721C61.9173 61.6007 61.7349 62.0454 61.7363 62.5084C61.7351 62.9713 61.9176 63.4158 62.2438 63.7442C62.57 64.0726 63.0133 64.2581 63.4762 64.26C64.427 64.26 65.2168 63.4639 65.2168 62.5084C65.2144 62.0465 65.0305 61.604 64.7049 61.2764C64.3793 60.9487 63.9381 60.7614 63.4762 60.7561ZM63.4527 61.0521C63.6453 61.0498 63.8365 61.0857 64.0151 61.1579C64.1937 61.23 64.3561 61.3369 64.493 61.4725C64.6299 61.608 64.7385 61.7693 64.8124 61.9472C64.8864 62.125 64.9243 62.3158 64.9238 62.5084C64.9238 63.3053 64.2676 63.9881 63.4535 63.9881C62.6629 63.9881 62.0066 63.3271 62.0066 62.5084C62.0066 61.6896 62.6848 61.0521 63.4527 61.0521ZM62.8207 61.5295V63.5311H63.2066V62.7373H63.5457C63.6816 62.7373 63.7262 62.7826 63.7488 62.8959C63.7488 62.9193 63.816 63.4193 63.816 63.51H64.2223C64.177 63.4193 64.1543 63.1459 64.1316 62.9865C64.1098 62.7365 64.0879 62.5545 63.816 62.5318C63.952 62.4857 64.1777 62.4178 64.1777 62.0537C64.1777 61.5303 63.7246 61.5303 63.4996 61.5303L62.8207 61.5295ZM63.1605 61.8482H63.4762C63.5902 61.8482 63.7699 61.8482 63.7699 62.1209C63.7699 62.2115 63.7262 62.3951 63.4762 62.3951H63.1598L63.1605 61.8482ZM51.8559 63.4186C49.2777 63.4186 47.7402 64.5107 47.7402 66.3537C47.7402 68.3334 49.2777 68.8771 51.7426 69.1279C54.7035 69.424 54.9301 69.8568 54.9301 70.4482C54.9301 71.4717 54.1145 71.9045 52.2152 71.9045C49.8184 71.9045 49.2988 71.3123 49.1176 70.1068C49.1176 69.9701 49.0066 69.8803 48.8707 69.8803H47.6949C47.6231 69.8811 47.5545 69.9102 47.5039 69.9612C47.4533 70.0122 47.4248 70.0811 47.4246 70.1529C47.4246 71.6998 48.2379 73.5201 52.1957 73.5201C55.0434 73.5201 56.6941 72.3811 56.6941 70.3795C56.6941 68.4225 55.3816 67.8998 52.602 67.5357C49.7973 67.1717 49.5043 66.967 49.5043 66.3076C49.5043 65.7615 49.7527 65.0342 51.8324 65.0342C53.6863 65.0342 54.3863 65.4443 54.6582 66.6951C54.6718 66.7516 54.7036 66.802 54.7486 66.8387C54.7936 66.8753 54.8494 66.8963 54.9074 66.8982H56.1051C56.1738 66.8982 56.2418 66.8537 56.2879 66.8084C56.3289 66.7475 56.3519 66.6763 56.3543 66.6029C56.1738 64.4193 54.7504 63.4186 51.8559 63.4186Z" fill="#5FA04E"/>
<path d="M67.2438 19.2686C67.1476 19.2672 67.0527 19.2912 66.9688 19.3381C66.8815 19.3894 66.8088 19.4621 66.7575 19.5493C66.7063 19.6365 66.6781 19.7354 66.6758 19.8366V34.6249C66.6758 34.7608 66.6055 34.8983 66.4704 34.9889C66.4079 35.0224 66.3381 35.04 66.2672 35.04C66.1963 35.04 66.1266 35.0224 66.0641 34.9889L63.6688 33.6022C63.493 33.5018 63.294 33.4489 63.0915 33.4489C62.8889 33.4489 62.6899 33.5018 62.5141 33.6022L52.9297 39.1764C52.7524 39.2764 52.6046 39.4215 52.5013 39.597C52.398 39.7724 52.3428 39.972 52.3414 40.1756V51.3006C52.3414 51.71 52.568 52.0975 52.9297 52.3022L62.5157 57.8764C62.6914 57.9767 62.8903 58.0295 63.0926 58.0295C63.295 58.0295 63.4938 57.9767 63.6696 57.8764L73.2547 52.3022C73.6164 52.0975 73.843 51.71 73.843 51.3006V23.5686C73.843 23.1366 73.6164 22.7483 73.2547 22.5444L67.536 19.3381C67.4455 19.2928 67.345 19.269 67.2438 19.2686ZM10.693 33.1483C10.5125 33.1483 10.3321 33.2139 10.1743 33.3046L0.588326 38.8585C0.408165 38.961 0.25865 39.1098 0.155229 39.2894C0.051809 39.469 -0.00176477 39.6731 4.43462e-05 39.8803L0.0234818 54.8038C0.0234818 55.0092 0.135201 55.2139 0.316451 55.3053C0.400475 55.3604 0.498774 55.3898 0.599263 55.3898C0.699752 55.3898 0.798051 55.3604 0.882076 55.3053L6.58051 52.0296C6.94223 51.8249 7.16645 51.4374 7.16645 51.028V44.0436C7.16645 43.6342 7.39301 43.2467 7.75551 43.0421L10.1743 41.6319C10.3547 41.5178 10.5594 41.4725 10.7625 41.4725C10.9657 41.4725 11.1696 41.5178 11.3282 41.6319L13.7469 43.0421C14.1086 43.2467 14.3352 43.6342 14.3352 44.0436V51.028C14.3352 51.4374 14.5602 51.8249 14.9211 52.0296L20.5743 55.3053C20.6621 55.3614 20.7642 55.3912 20.8684 55.3912C20.9726 55.3912 21.0747 55.3614 21.1625 55.3053C21.2525 55.2564 21.3275 55.1838 21.3792 55.0954C21.431 55.007 21.4576 54.9062 21.4563 54.8038V39.8803C21.4563 39.471 21.2297 39.0835 20.8672 38.878L11.3047 33.3046C11.1436 33.2191 10.9674 33.1657 10.786 33.1475L10.693 33.1483ZM89.3391 33.3124C89.1414 33.3124 88.9454 33.3639 88.7641 33.4671L79.1766 39.0381C78.8149 39.2428 78.5907 39.6303 78.5907 40.0405V51.1655C78.5907 51.5749 78.8149 51.9624 79.1766 52.1671L88.6954 57.6256C88.8668 57.7262 89.0619 57.7792 89.2606 57.7792C89.4593 57.7792 89.6544 57.7262 89.8258 57.6256L95.5914 54.3967C95.6813 54.3477 95.7561 54.2751 95.8077 54.1867C95.8593 54.0983 95.8858 53.9975 95.8844 53.8952C95.8856 53.7931 95.8589 53.6926 95.8073 53.6045C95.7557 53.5165 95.6811 53.4441 95.5914 53.3952L85.961 47.8202C85.8734 47.7687 85.8005 47.6957 85.7492 47.608C85.6979 47.5203 85.6699 47.421 85.668 47.3194V43.8381C85.6669 43.7361 85.6935 43.6356 85.7451 43.5475C85.7968 43.4594 85.8714 43.3871 85.961 43.3381L88.9688 41.6085C89.0567 41.5524 89.1587 41.5226 89.2629 41.5226C89.3672 41.5226 89.4692 41.5524 89.5571 41.6085L92.5618 43.3374C92.6498 43.3885 92.7232 43.4614 92.7749 43.5491C92.8266 43.6368 92.8549 43.7364 92.8571 43.8381V46.5686C92.8571 46.7741 92.9696 46.9788 93.15 47.0694C93.238 47.1256 93.3402 47.1555 93.4446 47.1555C93.549 47.1555 93.6512 47.1256 93.7391 47.0694L99.4352 43.7256C99.6099 43.6237 99.7543 43.4772 99.8537 43.301C99.9531 43.1249 100.004 42.9255 100.001 42.7233V40.0163C100.001 39.6069 99.7743 39.2217 99.4352 39.0163L89.9164 33.4663C89.7408 33.3658 89.5422 33.3125 89.3399 33.3116L89.3391 33.3124ZM63.0915 41.6202C63.1422 41.6202 63.1938 41.6319 63.2399 41.6553L66.5164 43.5663C66.6071 43.6116 66.6532 43.7241 66.6532 43.8155V47.6374C66.6532 47.7514 66.6071 47.8436 66.5164 47.8889L63.2391 49.7999C63.1931 49.8224 63.1426 49.8341 63.0915 49.8341C63.0403 49.8341 62.9898 49.8224 62.9438 49.7999L59.6664 47.8889C59.5758 47.8436 59.5297 47.7288 59.5297 47.6374V43.8155C59.5297 43.7014 59.5766 43.6116 59.6664 43.5655L62.9438 41.6553C62.9896 41.6315 63.0398 41.6195 63.0915 41.6202Z" fill="black"/>
<path d="M37.4857 33.5105C37.3103 33.4096 37.1114 33.3564 36.9091 33.3564C36.7067 33.3564 36.5079 33.4096 36.3325 33.5105L26.8138 39.0394C26.6393 39.1412 26.4951 39.2875 26.3957 39.4633C26.2963 39.6391 26.2454 39.8382 26.2482 40.0401V51.119C26.2482 51.5292 26.4747 51.9159 26.8138 52.1206L36.3325 57.6487C36.5079 57.7496 36.7067 57.8027 36.9091 57.8027C37.1114 57.8027 37.3103 57.7496 37.4857 57.6487L47.0036 52.1206C47.3653 51.9159 47.5692 51.5292 47.5692 51.119V40.0401C47.5692 39.6308 47.3427 39.2433 47.0036 39.0394L37.4857 33.5105Z" fill="url(#paint0_linear_20_26)"/>
<path d="M47.0264 39.0387L37.4631 33.5098C37.3692 33.4622 37.2708 33.4243 37.1693 33.3965L26.4521 51.8465C26.5428 51.9605 26.6553 52.0512 26.7686 52.1199L36.3326 57.648C36.6037 57.8074 36.9201 57.8527 37.2139 57.7613L47.2756 39.2434C47.2095 39.1567 47.1242 39.0867 47.0264 39.0387Z" fill="url(#paint1_linear_20_26)"/>
<path d="M47.027 52.1192C47.2988 51.9599 47.502 51.6872 47.5926 51.3911L37.1238 33.3731C36.8535 33.3278 36.559 33.3505 36.3105 33.5099L26.8145 39.0153L37.0566 57.8067C37.1918 57.7841 37.3504 57.7388 37.4863 57.67L47.027 52.1192Z" fill="url(#paint2_linear_20_26)"/>
</g>
<defs>
<linearGradient id="paint0_linear_20_26" x1="40.7852" y1="37.6274" x2="32.0923" y2="55.2507" gradientUnits="userSpaceOnUse">
<stop stop-color="#3F873F"/>
<stop offset="0.33" stop-color="#3F8B3D"/>
<stop offset="0.637" stop-color="#3E9638"/>
<stop offset="0.934" stop-color="#3DA92E"/>
<stop offset="1" stop-color="#3DAE2B"/>
</linearGradient>
<linearGradient id="paint1_linear_20_26" x1="35.4627" y1="46.8727" x2="59.7168" y2="29.0626" gradientUnits="userSpaceOnUse">
<stop offset="0.138" stop-color="#3F873F"/>
<stop offset="0.402" stop-color="#52A044"/>
<stop offset="0.713" stop-color="#64B749"/>
<stop offset="0.908" stop-color="#6ABF4B"/>
</linearGradient>
<linearGradient id="paint2_linear_20_26" x1="25.9006" y1="45.5752" x2="47.9259" y2="45.5752" gradientUnits="userSpaceOnUse">
<stop offset="0.092" stop-color="#6ABF4B"/>
<stop offset="0.287" stop-color="#64B749"/>
<stop offset="0.598" stop-color="#52A044"/>
<stop offset="0.862" stop-color="#3F873F"/>
</linearGradient>
<clipPath id="clip0_20_26">
<rect width="100" height="100" fill="white"/>
</clipPath>
</defs>
</svg>
