<svg width="100" height="100" viewBox="0 0 100 100" fill="none" xmlns="http://www.w3.org/2000/svg">
<path fill-rule="evenodd" clip-rule="evenodd" d="M68.7795 33.4473C70.0334 37.0746 70.9365 40.7777 71.2334 44.616C71.6022 49.3777 71.4334 54.1059 70.4295 58.7895C70.4022 58.9184 70.3443 59.0395 70.3014 59.1645C69.9865 59.1652 69.6654 59.1262 69.3576 59.1738C66.7568 59.5824 64.1584 60.0059 61.56 60.427C58.874 60.8621 56.1842 61.2801 53.5029 61.7449C52.5529 61.909 51.3772 61.7129 50.9936 63.027C50.9826 63.0629 50.8732 63.0691 50.81 63.0895L50.9397 55.2371L50.8076 36.2902L52.0592 36.0754C54.1061 35.7402 56.1529 35.4004 58.2014 35.0746C60.6459 34.6863 63.0928 34.309 65.5389 33.9301C66.6178 33.7621 67.6982 33.6082 68.7795 33.4473Z" fill="#439934"/>
<path fill-rule="evenodd" clip-rule="evenodd" d="M48.2262 85.9799C46.9058 84.8447 45.5394 83.7596 44.2738 82.5658C37.4637 76.1424 32.4824 68.5822 30.0293 59.4674C29.3535 56.9588 28.9027 54.4096 28.7582 51.8174C28.6566 50.0033 28.5097 48.1729 28.6379 46.3682C28.9793 41.5682 29.673 36.8143 31.0808 32.1908L31.1582 32.083C31.2949 32.265 31.4918 32.426 31.5613 32.6314C32.9353 36.6783 34.3004 40.7281 35.6566 44.7807C39.9207 57.515 44.1793 70.2525 48.4504 82.9838C48.534 83.2322 48.7504 83.4361 48.9058 83.6603L48.2262 85.9799Z" fill="#45A538"/>
<path fill-rule="evenodd" clip-rule="evenodd" d="M68.7799 33.4467C67.6987 33.6076 66.6174 33.7615 65.5385 33.9279C63.0924 34.3068 60.6455 34.6842 58.201 35.0725C56.1526 35.3982 54.1057 35.7381 52.0588 36.0732L50.8072 36.2881L50.7979 35.4717C50.7565 34.8006 50.6854 34.1303 50.6776 33.4592C50.6237 29.1795 50.5901 24.8998 50.5369 20.6201C50.5041 17.9412 50.4549 15.2631 50.4002 12.585C50.3666 10.9209 50.3307 9.25605 50.2557 7.59434C50.2151 6.70137 50.0713 5.81309 50.0127 4.92012C49.9799 4.40684 50.0252 3.88965 50.0354 3.37402C50.6737 4.61074 51.2979 5.85684 51.9541 7.08418C52.9908 9.0248 54.6424 10.4545 56.1291 12.0146C62.0065 18.1803 66.1791 25.349 68.7799 33.4467Z" fill="#46A037"/>
<path fill-rule="evenodd" clip-rule="evenodd" d="M50.8094 63.0881C50.8727 63.0678 50.9828 63.0615 50.993 63.0256C51.3766 61.7115 52.5523 61.9076 53.5023 61.7436C56.1836 61.2795 58.8734 60.8608 61.5594 60.4256C64.1578 60.0045 66.7562 59.5811 69.357 59.1725C69.6648 59.124 69.9859 59.1639 70.3008 59.1631C69.8148 60.8975 69.432 62.6694 68.8156 64.3561C68.1156 66.2694 67.2688 68.1366 66.3695 69.967C65.0243 72.6978 63.3581 75.2583 61.4062 77.5944C59.907 79.3975 58.2359 81.0639 56.5609 82.71C55.6352 83.6201 54.5437 84.3615 53.5281 85.1795L53.2648 84.9998L52.3164 84.1889L51.3352 82.0381C50.6649 79.5291 50.2992 76.9486 50.2461 74.3522L50.2641 73.9139L50.3977 72.0186C50.4422 71.3717 50.5016 70.7256 50.5289 70.0772C50.6297 67.7475 50.7172 65.4178 50.8094 63.0881Z" fill="#409433"/>
<path fill-rule="evenodd" clip-rule="evenodd" d="M50.8092 63.0881C50.717 65.4178 50.6295 67.7475 50.5303 70.0779C50.5029 70.7264 50.4436 71.3725 50.399 72.0193L49.8014 72.2451C48.474 68.3373 47.1459 64.4709 45.8467 60.5943C43.6982 54.1811 41.5756 47.7576 39.4303 41.3428C37.6975 36.165 35.9527 30.9913 34.1959 25.8217C34.1139 25.5795 33.8779 25.3904 33.7139 25.1764L37.5389 18.1436C37.6701 18.3717 37.8436 18.585 37.9264 18.8303C39.6979 24.0663 41.4604 29.3054 43.2139 34.5475C45.492 41.3678 47.7561 48.1936 50.0326 55.0146C50.1232 55.2873 50.2732 55.5389 50.4162 55.8443L50.9397 55.235L50.8092 63.0881Z" fill="#4FAA41"/>
<path fill-rule="evenodd" clip-rule="evenodd" d="M33.7145 25.1777C33.8785 25.3918 34.1137 25.5809 34.1965 25.823C35.9533 30.9927 37.6981 36.1664 39.4309 41.3441C41.5762 47.759 43.6988 54.1824 45.8473 60.5957C47.1457 64.4715 48.4738 68.3387 49.802 72.2465L50.3996 72.0207L50.266 73.916L50.1449 74.3527C49.9371 76.4277 49.7621 78.5074 49.509 80.5777C49.3816 81.6152 49.1113 82.634 48.9059 83.6613C48.7512 83.4371 48.534 83.2332 48.4504 82.9848C44.1793 70.2527 39.9207 57.516 35.6566 44.7816C34.3001 40.729 32.935 36.6793 31.5613 32.6324C31.4918 32.427 31.2957 32.266 31.1582 32.084L33.7145 25.1777Z" fill="#4AA73C"/>
<path fill-rule="evenodd" clip-rule="evenodd" d="M50.9389 55.2359L50.4154 55.8453C50.2725 55.5398 50.1225 55.2875 50.0318 55.0156C47.7561 48.1945 45.4912 41.3687 43.2131 34.5484C41.4596 29.3063 39.6971 24.0673 37.9256 18.8312C37.8436 18.5859 37.6701 18.3719 37.5381 18.1445L42.2686 11.9219C42.4178 12.1211 42.6303 12.2984 42.7076 12.5227C44.0201 16.3674 45.323 20.2159 46.6162 24.068C47.8248 27.6648 49.0154 31.2672 50.2381 34.8594C50.3201 35.1 50.6053 35.2703 50.7959 35.4734L50.8053 36.2898C50.8506 42.6044 50.8951 48.9198 50.9389 55.2359Z" fill="#57AE47"/>
<path fill-rule="evenodd" clip-rule="evenodd" d="M50.7979 35.4723C50.6072 35.2691 50.3221 35.0988 50.24 34.8582C49.0174 31.266 47.8268 27.6637 46.6182 24.0668C45.3249 20.2152 44.0221 16.3668 42.7096 12.5215C42.6322 12.2973 42.4197 12.1199 42.2705 11.9207C43.8088 10.4145 45.2994 8.8543 46.8994 7.41758C48.3221 6.14102 49.4658 4.77227 49.5182 2.75508C49.5205 2.67148 49.5643 2.58789 49.6314 2.35352L50.0369 3.37383C50.0268 3.89023 49.9807 4.40664 50.0143 4.91992C50.0729 5.81289 50.2166 6.70117 50.2572 7.59414C50.3322 9.25586 50.3682 10.9207 50.4018 12.5848C50.4557 15.2629 50.5049 17.941 50.5385 20.6199C50.5908 24.8996 50.6252 29.1793 50.6791 33.459C50.6854 34.1316 50.7557 34.8012 50.7979 35.4723Z" fill="#60B24F"/>
<path fill-rule="evenodd" clip-rule="evenodd" d="M48.9043 83.6602C49.1098 82.6328 49.3801 81.6133 49.5074 80.5766C49.7613 78.507 49.9355 76.4266 50.1434 74.3516L50.1949 74.3438L50.2465 74.3523C50.2996 76.9487 50.6653 79.5293 51.3355 82.0383C51.198 82.2195 51.0035 82.3812 50.9309 82.5859C50.3629 84.1875 49.8277 85.8016 49.2566 87.4031C49.1785 87.6219 48.9613 87.7922 48.8082 87.9844L48.2246 85.9797L48.9043 83.6602Z" fill="#A9AA88"/>
<path fill-rule="evenodd" clip-rule="evenodd" d="M48.8096 87.9852C48.9627 87.793 49.1807 87.6227 49.258 87.4039C49.8291 85.8023 50.365 84.1891 50.9322 82.5867C51.0049 82.382 51.1986 82.2203 51.3369 82.0391L52.3174 84.1906C52.1236 84.4656 51.8564 84.7133 51.7486 85.0195L49.8705 90.5344C49.7932 90.7555 49.5291 90.9117 49.3525 91.0984L48.8096 87.9852Z" fill="#B6B598"/>
<path fill-rule="evenodd" clip-rule="evenodd" d="M49.3525 91.0973C49.5299 90.9113 49.7932 90.7543 49.8705 90.5332L51.7486 85.0184C51.8557 84.7129 52.1236 84.4645 52.3174 84.1895L53.2666 84.9996C52.808 85.4527 52.5533 85.9762 52.7064 86.6379L52.4182 87.5816C52.2869 87.7434 52.0971 87.884 52.0322 88.0691C51.3768 89.9465 50.751 91.834 50.0908 93.7113C50.0072 93.9496 49.7752 94.1363 49.6111 94.3457C49.5257 93.2629 49.4395 92.1801 49.3525 91.0973Z" fill="#C2C1A7"/>
<path fill-rule="evenodd" clip-rule="evenodd" d="M49.6119 94.3461C49.7752 94.1359 50.0072 93.9492 50.0916 93.7117C50.7518 91.8352 51.3775 89.9477 52.033 88.0695C52.0978 87.8852 52.2869 87.7438 52.4189 87.582L52.0213 91.9141C51.915 92.0367 51.7611 92.1437 51.7104 92.2867C51.2611 93.5477 50.8377 94.818 50.3869 96.0789C50.2939 96.3391 50.1158 96.5687 49.9768 96.8117C49.8533 96.65 49.6322 96.4937 49.6221 96.325C49.5822 95.668 49.6096 95.0062 49.6119 94.3461Z" fill="#CECDB7"/>
<path fill-rule="evenodd" clip-rule="evenodd" d="M49.9756 96.8117C50.1146 96.568 50.2928 96.3383 50.3857 96.0789C50.8373 94.8188 51.26 93.5484 51.7092 92.2867C51.76 92.1437 51.9146 92.0375 52.0201 91.9141L52.0295 94.7578L51.0779 97.1984L49.9756 96.8117Z" fill="#DBDAC7"/>
<path fill-rule="evenodd" clip-rule="evenodd" d="M51.0781 97.1994L52.0297 94.7588L52.2258 97.6463L51.0781 97.1994Z" fill="#EBE9DC"/>
<path fill-rule="evenodd" clip-rule="evenodd" d="M52.7058 86.6393C52.5527 85.9775 52.8066 85.4533 53.2659 85.001L53.5292 85.1807L52.7058 86.6393Z" fill="#CECDB7"/>
<path fill-rule="evenodd" clip-rule="evenodd" d="M50.2467 74.3535L50.1951 74.3449L50.1436 74.3527L50.2646 73.916L50.2467 74.3535Z" fill="#4FAA41"/>
</svg>
