<svg width="100" height="100" viewBox="0 0 100 100" fill="none" xmlns="http://www.w3.org/2000/svg">
<path fill-rule="evenodd" clip-rule="evenodd" d="M50.0004 3.98633C23.948 3.98633 2.82227 25.1074 2.82227 51.1645C2.82227 72.0098 16.3402 89.6934 35.0855 95.9324C37.4426 96.3699 38.3082 94.909 38.3082 93.6629C38.3082 92.5379 38.2645 88.8215 38.2441 84.8793C25.1191 87.7332 22.3496 79.3129 22.3496 79.3129C20.2035 73.8598 17.1113 72.4098 17.1113 72.4098C12.8301 69.4816 17.434 69.5426 17.434 69.5426C22.1707 69.8746 24.666 74.4043 24.666 74.4043C28.8738 81.6152 35.7027 79.5309 38.3949 78.3262C38.8184 75.277 40.041 73.1949 41.3902 72.0168C30.9113 70.8254 19.8949 66.7793 19.8949 48.702C19.8949 43.5512 21.7387 39.3426 24.7566 36.0379C24.266 34.8504 22.6512 30.052 25.2129 23.5535C25.2129 23.5535 29.1738 22.2855 38.1895 28.3895C41.9535 27.3434 45.9902 26.8176 50.0004 26.7996C54.0082 26.8176 58.0473 27.3418 61.8184 28.3879C70.823 22.284 74.7793 23.552 74.7793 23.552C77.3473 30.0496 75.7324 34.8488 75.2426 36.0363C78.2676 39.341 80.098 43.5496 80.098 48.7004C80.098 66.8207 69.0613 70.8098 58.5559 71.9785C60.2488 73.4426 61.7566 76.3145 61.7566 80.7152C61.7566 87.0277 61.702 92.1082 61.702 93.6621C61.702 94.9176 62.552 96.3887 64.9426 95.9254C83.677 89.6801 97.1793 72.002 97.1793 51.1645C97.1785 25.109 76.0551 3.98633 50.0004 3.98633Z" fill="white"/>
<path d="M20.6911 71.7234C20.5872 71.9578 20.2184 72.0281 19.8825 71.868C19.5388 71.7148 19.3473 71.3953 19.4583 71.1601C19.5598 70.918 19.9294 70.8516 20.2708 71.0133C20.6145 71.1672 20.8098 71.4898 20.6903 71.7242L20.6911 71.7234ZM22.602 73.8555C22.3778 74.0641 21.938 73.9672 21.6395 73.6367C21.3302 73.3086 21.2723 72.8687 21.5013 72.657C21.7341 72.4492 22.1606 72.5476 22.47 72.8758C22.7778 73.2086 22.8388 73.6445 22.6028 73.8562L22.602 73.8555ZM24.463 76.5719C24.1739 76.7734 23.7005 76.5851 23.4083 76.1656C23.1192 75.7453 23.1192 75.2414 23.4161 75.0406C23.7075 74.8391 24.1739 75.0211 24.4708 75.4367C24.7583 75.8625 24.7583 76.3672 24.463 76.5719ZM27.0106 79.1976C26.7528 79.4828 26.2013 79.4062 25.7981 79.018C25.3864 78.6375 25.2716 78.0961 25.5302 77.8117C25.7927 77.5258 26.3466 77.6055 26.752 77.9914C27.1638 78.3711 27.288 78.9133 27.0122 79.1969L27.0106 79.1976ZM30.5263 80.7219C30.4114 81.0914 29.8817 81.2594 29.3466 81.1016C28.813 80.9398 28.4638 80.5078 28.5731 80.1344C28.6825 79.7617 29.2161 79.5875 29.7544 79.7555C30.288 79.9164 30.6372 80.3461 30.5263 80.7219ZM34.388 81.0039C34.4013 81.393 33.9481 81.7148 33.388 81.7226C32.8231 81.7359 32.3661 81.4203 32.3606 81.0375C32.3606 80.6445 32.8044 80.3266 33.3684 80.3156C33.9286 80.3055 34.3888 80.618 34.3888 81.0031L34.388 81.0039ZM37.9802 80.393C38.0473 80.7719 37.6575 81.1617 37.1005 81.2656C36.5536 81.3672 36.0458 81.1312 35.9755 80.7555C35.9083 80.3664 36.3052 79.9766 36.852 79.8758C37.4098 79.7797 37.9098 80.0078 37.9802 80.393Z" fill="white"/>
</svg>
