<svg width="100" height="100" viewBox="0 0 100 100" fill="none" xmlns="http://www.w3.org/2000/svg">
<g clip-path="url(#clip0_20_24)">
<path d="M50.0029 20.002C36.6693 20.002 28.3389 26.666 25.0029 39.9996C30.0014 33.3348 35.8365 30.8355 42.5014 32.502C46.3068 33.4504 49.0264 36.2098 52.0381 39.2676C56.9397 44.2418 62.6131 50.0004 75.0029 50.0004C88.3357 50.0004 96.667 43.3355 100.003 29.9988C95.0029 36.6671 89.1699 39.1676 82.5037 37.5004C78.699 36.5512 75.9826 33.7926 72.967 30.7348C68.0686 25.7605 62.3967 20.002 50.0029 20.002ZM25.0029 50.0004C11.6701 50.0004 3.33887 56.6652 0.00292969 70.002C5.00241 63.3337 10.8352 60.8332 17.5014 62.5004C21.3068 63.4496 24.0264 66.2082 27.0381 69.266C31.9396 74.2402 37.6131 79.9988 50.0029 79.9988C63.3357 79.9988 71.667 73.3348 75.0029 60.0012C70.0029 66.6663 64.1699 69.1655 57.5037 67.4988C53.699 66.5504 50.9826 63.791 47.967 60.7332C43.0686 55.759 37.3967 50.0004 25.0029 50.0004Z" fill="#38BDF8"/>
</g>
<defs>
<clipPath id="clip0_20_24">
<rect width="100" height="100" fill="white"/>
</clipPath>
</defs>
</svg>
